<svg id="SvgjsSvg1012" width="288" height="288" xmlns="http://www.w3.org/2000/svg" version="1.1" xmlns:xlink="http://www.w3.org/1999/xlink" xmlns:svgjs="http://svgjs.com/svgjs"><defs id="SvgjsDefs1013"></defs><g id="SvgjsG1014"><svg xmlns="http://www.w3.org/2000/svg" viewBox="0 0 100 100" width="288" height="288"><path d="M49.918 95.866c25.352 0 45.978-20.625 45.978-45.978 0-25.352-20.625-45.977-45.978-45.977S3.94 24.536 3.94 49.888c0 25.353 20.626 45.978 45.978 45.978zm0-89.955c24.25 0 43.978 19.728 43.978 43.977 0 24.25-19.728 43.978-43.978 43.978S5.94 74.138 5.94 49.888c0-24.249 19.728-43.977 43.978-43.977z" fill="#ffffff" class="color000 svgShape"></path><path d="M35.216 71.007H64.62a6.423 6.423 0 0 0 6.417-6.417V45.197a1 1 0 0 0-1-1h-8.501a1.002 1.002 0 0 0-.89 1.458 11.917 11.917 0 0 1 1.331 5.504c0 6.649-5.41 12.058-12.059 12.058-6.649 0-12.059-5.409-12.059-12.058 0-1.937.448-3.789 1.331-5.504a.998.998 0 0 0-.89-1.457h-8.502a1 1 0 0 0-1 1v19.394a6.425 6.425 0 0 0 6.418 6.415zm-4.417-24.81h5.963a13.887 13.887 0 0 0-.902 4.961c0 7.751 6.307 14.058 14.059 14.058 7.752 0 14.059-6.307 14.059-14.058a13.91 13.91 0 0 0-.902-4.961h5.962v18.394a4.422 4.422 0 0 1-4.417 4.417H35.216a4.421 4.421 0 0 1-4.417-4.417V46.197zm30.589-4.827h2.771c2.3 0 4.171-1.871 4.171-4.17v-2.771c0-2.3-1.871-4.171-4.171-4.171h-2.771a4.176 4.176 0 0 0-4.171 4.171V37.2a4.175 4.175 0 0 0 4.171 4.17zm-2.171-6.942c0-1.197.974-2.171 2.171-2.171h2.771c1.197 0 2.171.974 2.171 2.171V37.2c0 1.196-.974 2.17-2.171 2.17h-2.771a2.173 2.173 0 0 1-2.171-2.17v-2.772z" fill="#ffffff" class="color000 svgShape"></path><path d="M49.918 60.419c5.106 0 9.261-4.155 9.261-9.261 0-5.107-4.155-9.262-9.261-9.262s-9.261 4.155-9.261 9.262c0 5.106 4.155 9.261 9.261 9.261zm0-16.523c4.004 0 7.261 3.258 7.261 7.262s-3.257 7.261-7.261 7.261-7.261-3.257-7.261-7.261 3.258-7.262 7.261-7.262z" fill="#ffffff" class="color000 svgShape"></path><path d="M35.216 74.876H64.62c5.671 0 10.286-4.614 10.286-10.286V35.186c0-5.671-4.614-10.285-10.286-10.285H35.216c-5.671 0-10.286 4.614-10.286 10.285v29.405c0 5.671 4.614 10.285 10.286 10.285zm-8.286-39.69c0-4.568 3.717-8.285 8.286-8.285H64.62c4.569 0 8.286 3.717 8.286 8.285v29.405c0 4.569-3.717 8.286-8.286 8.286H35.216c-4.569 0-8.286-3.717-8.286-8.286V35.186z" fill="#ffffff" class="color000 svgShape"></path></svg></g></svg>