<svg id="SvgjsSvg1026" width="288" height="288" xmlns="http://www.w3.org/2000/svg" version="1.1" xmlns:xlink="http://www.w3.org/1999/xlink" xmlns:svgjs="http://svgjs.com/svgjs"><defs id="SvgjsDefs1027"></defs><g id="SvgjsG1028"><svg xmlns="http://www.w3.org/2000/svg" viewBox="0 0 100 100" width="288" height="288"><path d="M50.514 4C25.137 4 4.491 24.646 4.491 50.022c0 25.376 20.646 46.021 46.022 46.021s46.022-20.645 46.022-46.021C96.536 24.646 75.891 4 50.514 4zm0 90.044c-24.274 0-44.022-19.748-44.022-44.021C6.491 25.749 26.24 6 50.514 6s44.022 19.749 44.022 44.022c0 24.274-19.748 44.022-44.022 44.022z" fill="#ffffff" class="color000 svgShape"></path><path d="M73.044 33.437c-1.155-.901-2.97-1.191-5.524-1.366-3.704-.252-9.99-.403-16.815-.403s-13.11.15-16.813.403c-2.554.175-4.369.465-5.523 1.366-.797.623-1.771 1.828-2.223 5.661-.6 5.101-.6 16.733 0 21.836.452 3.828 1.425 5.035 2.221 5.657 1.155.905 2.971 1.195 5.526 1.37 3.723.251 10.008.402 16.812.402s13.091-.15 16.815-.402c2.554-.174 4.37-.464 5.527-1.371.796-.627 1.769-1.837 2.216-5.656.603-5.103.603-16.736 0-21.836-.447-3.824-1.42-5.033-2.219-5.661zm.233 27.264c-.271 2.312-.765 3.765-1.465 4.316-.796.624-2.685.83-4.427.949-3.682.249-9.917.397-16.68.397-6.762 0-12.997-.148-16.677-.397-1.743-.119-3.632-.325-4.429-.949-.701-.548-1.194-2-1.468-4.316-.587-4.994-.587-16.377 0-21.369.273-2.319.767-3.772 1.467-4.318.797-.622 2.687-.828 4.429-.948 3.661-.249 9.896-.398 16.677-.398 6.782 0 13.018.149 16.678.398 1.744.12 3.633.326 4.428.946.702.551 1.195 2.004 1.466 4.32.592 4.992.592 16.375.001 21.369z" fill="#ffffff" class="color000 svgShape"></path><path d="m59.86 49.128-14.486-7.552a.998.998 0 0 0-1.462.887v15.105a1 1 0 0 0 1.462.887l14.486-7.554a.999.999 0 0 0 0-1.773zm-13.949 6.791V44.112l11.323 5.903-11.323 5.904z" fill="#ffffff" class="color000 svgShape"></path></svg></g></svg>